<?xml version="1.0" standalone="no"?>
<!DOCTYPE svg PUBLIC "-//W3C//DTD SVG 20010904//EN"
 "http://www.w3.org/TR/2001/REC-SVG-20010904/DTD/svg10.dtd">
<svg version="1.0" xmlns="http://www.w3.org/2000/svg"
 width="512.000000pt" height="512.000000pt" viewBox="0 0 512.000000 512.000000"
 preserveAspectRatio="xMidYMid meet">
<metadata>
Created by potrace 1.14, written by Peter Selinger 2001-2017
</metadata>
<g transform="translate(0.000000,512.000000) scale(0.100000,-0.100000)"
fill="#000000" stroke="none">
<path d="M1385 5101 c-45 -21 -89 -61 -113 -106 -15 -26 -17 -75 -20 -351 l-3
-321 -80 -27 c-175 -57 -288 -171 -346 -346 l-26 -80 -94 0 c-86 0 -96 -2
-118 -25 -28 -28 -32 -70 -9 -100 13 -17 30 -21 117 -25 115 -6 114 -6 102
-86 l-6 -44 -298 0 c-222 0 -301 3 -314 13 -27 20 -31 60 -8 88 17 22 28 24
108 28 48 1 94 8 102 14 40 33 32 104 -15 126 -31 14 -157 15 -203 1 -58 -16
-109 -59 -136 -113 -45 -90 -29 -177 44 -248 68 -66 89 -69 436 -69 l296 0 -3
-52 -3 -53 -325 -5 c-361 -6 -360 -5 -418 -75 -86 -105 -60 -255 55 -327 37
-23 44 -23 363 -28 l325 -5 3 -52 3 -53 -299 0 c-341 0 -374 -5 -434 -67 -91
-93 -91 -213 0 -306 60 -62 93 -67 434 -67 l299 0 -3 -52 -3 -53 -325 -5
c-319 -5 -326 -5 -363 -28 -141 -88 -141 -286 0 -374 37 -23 44 -23 363 -28
l325 -5 3 -52 3 -53 -299 0 c-341 0 -374 -5 -434 -67 -20 -21 -44 -55 -53 -75
-47 -114 24 -253 146 -288 19 -6 169 -10 335 -10 l301 0 26 -81 c58 -175 171
-288 347 -346 l79 -26 3 -321 c3 -350 3 -348 65 -410 87 -89 216 -87 304 3 66
68 69 89 69 436 l0 296 53 -3 52 -3 5 -325 c6 -361 5 -360 75 -418 105 -86
255 -60 327 55 23 37 23 44 28 363 l5 325 53 3 52 3 0 -299 c0 -341 5 -374 67
-434 93 -91 213 -91 306 0 62 60 67 93 67 434 l0 299 53 -3 52 -3 5 -325 c5
-319 5 -326 28 -363 88 -141 286 -141 374 0 23 37 23 44 28 363 l5 325 53 3
52 3 0 -299 c0 -350 4 -376 74 -440 72 -66 157 -79 243 -37 54 27 97 78 113
136 6 19 10 169 10 335 l0 302 73 22 c174 53 295 173 353 349 l27 80 321 3
c350 3 348 3 410 65 85 84 87 209 4 299 -64 70 -90 74 -440 74 l-299 0 3 53 3
52 325 5 c319 5 326 5 363 28 141 88 141 286 0 374 -37 23 -44 23 -363 28
l-325 5 -3 53 -3 52 299 0 c341 0 374 5 434 67 91 93 91 213 0 306 -60 62 -93
67 -434 67 l-299 0 3 53 3 52 325 5 c319 5 326 5 363 28 141 88 141 286 0 374
-37 23 -44 23 -363 28 l-325 5 -3 53 -3 52 299 0 c350 0 376 4 440 74 83 90
81 215 -4 299 -62 62 -60 62 -410 65 l-321 3 -27 80 c-58 176 -179 296 -353
349 l-73 22 0 302 c0 166 -4 316 -10 335 -35 122 -174 193 -288 146 -20 -9
-54 -33 -75 -53 -62 -60 -67 -93 -67 -434 l0 -299 -52 3 -53 3 -5 325 c-5 319
-5 326 -28 363 -88 141 -286 141 -374 0 -23 -37 -23 -44 -28 -363 l-5 -325
-52 -3 -53 -3 0 299 c0 341 -5 374 -67 434 -93 91 -213 91 -306 0 -62 -60 -67
-93 -67 -434 l0 -299 -52 3 -53 3 -5 325 c-5 319 -5 326 -28 363 -72 115 -222
141 -327 55 -70 -58 -69 -57 -75 -418 l-5 -325 -52 -3 -53 -3 0 296 c0 183 -4
313 -11 340 -14 55 -70 122 -123 146 -52 24 -120 24 -171 0z m125 -151 c19
-19 20 -33 20 -325 l0 -305 -29 0 c-16 0 -43 3 -60 6 l-31 7 2 305 3 306 25
13 c34 17 47 16 70 -7z m544 -1 l26 -20 0 -305 0 -304 -34 0 c-18 0 -48 3 -65
6 l-31 7 0 298 0 298 26 20 c15 12 32 21 39 21 7 0 24 -9 39 -21z m544 5 c22
-15 22 -16 22 -325 l0 -309 -29 0 c-16 0 -43 3 -60 6 l-31 7 2 305 3 306 25
13 c32 16 41 16 68 -3z m546 -5 l26 -20 0 -305 0 -304 -27 0 c-16 0 -45 3 -65
6 l-38 7 0 294 0 294 25 24 c29 30 45 31 79 4z m547 2 l24 -19 0 -303 c0 -343
7 -318 -81 -304 l-44 6 0 298 c0 305 2 320 40 334 27 10 37 7 61 -12z m-53
-1187 c58 -29 106 -79 133 -138 18 -39 19 -84 19 -824 0 -852 -1 -834 55 -848
24 -6 25 -10 25 -79 0 -63 -3 -75 -19 -80 -45 -14 -56 -41 -61 -164 -5 -109
-7 -121 -35 -167 -35 -56 -100 -109 -153 -124 -24 -6 -383 -10 -1052 -10 -965
0 -1017 1 -1056 19 -59 27 -109 75 -138 133 l-26 52 0 1026 0 1026 26 52 c29
58 79 106 138 133 39 18 91 19 1067 19 l1025 0 52 -26z m1314 -73 c22 -28 18
-68 -9 -88 -13 -10 -92 -13 -314 -13 l-296 0 -7 31 c-8 42 -8 84 1 93 4 4 142
6 306 4 l299 -3 20 -24z m-4152 -548 c0 -16 -3 -45 -6 -65 l-7 -38 -294 0
-294 0 -24 25 c-30 29 -31 45 -4 79 l20 26 305 0 304 0 0 -27z m4149 1 c27
-34 26 -50 -4 -79 l-24 -25 -294 0 -294 0 -7 38 c-3 20 -6 49 -6 65 l0 27 304
0 305 0 20 -26z m-4149 -553 c0 -16 -3 -43 -6 -60 l-6 -31 -295 0 c-172 0
-302 4 -313 10 -26 14 -34 57 -15 86 l15 24 310 0 310 0 0 -29z m4155 5 c19
-29 11 -72 -15 -86 -11 -6 -141 -10 -313 -10 l-294 0 -7 31 c-3 17 -6 44 -6
60 l0 29 310 0 310 0 15 -24z m-4155 -550 c0 -18 -3 -48 -6 -65 l-6 -31 -299
0 -298 0 -20 26 c-12 15 -21 32 -21 39 0 7 9 24 21 39 l20 26 305 0 304 0 0
-34z m4149 8 c12 -15 21 -32 21 -39 0 -7 -9 -24 -21 -39 l-20 -26 -298 0 -298
0 -7 31 c-3 17 -6 47 -6 65 l0 34 304 0 305 0 20 -26z m-4149 -551 c0 -16 -3
-45 -7 -66 l-6 -38 -297 3 c-224 2 -301 6 -313 16 -24 20 -30 61 -12 88 l15
24 310 0 310 0 0 -27z m4155 3 c18 -27 12 -68 -12 -88 -12 -10 -89 -14 -313
-16 l-297 -3 -6 38 c-4 21 -7 50 -7 66 l0 27 310 0 310 0 15 -24z m-3425
-1011 c0 -296 -1 -306 -21 -326 -15 -15 -28 -19 -47 -14 -53 13 -52 6 -52 331
l0 303 23 4 c12 2 39 5 60 6 l37 1 0 -305z m550 1 l0 -305 -26 -20 c-33 -26
-45 -26 -78 0 l-26 20 0 299 0 299 23 4 c12 2 41 5 65 6 l42 1 0 -304z m538
-8 l-3 -312 -26 -15 c-22 -12 -29 -12 -55 0 l-29 14 -3 307 -2 307 22 4 c13 2
40 5 61 6 l37 1 -2 -312z m552 8 l0 -305 -26 -20 c-34 -27 -50 -26 -79 4 l-25
24 0 295 0 295 28 4 c15 2 44 5 65 6 l37 1 0 -304z m545 -4 l0 -304 -24 -20
c-28 -22 -68 -18 -88 9 -10 13 -13 92 -13 314 l0 298 23 4 c12 3 40 4 62 3
l40 -1 0 -303z"/>
<path d="M1809 2994 c-15 -3 -51 -19 -80 -37 -44 -26 -60 -43 -84 -92 l-30
-60 0 -250 c0 -249 0 -250 26 -300 58 -114 202 -163 349 -119 113 34 180 112
180 212 0 65 -16 82 -79 82 -58 0 -67 -9 -82 -79 -9 -42 -17 -56 -42 -72 -39
-23 -97 -25 -138 -3 -52 26 -59 60 -59 286 0 222 8 259 60 285 53 27 147 7
168 -35 5 -9 12 -33 16 -53 9 -49 25 -61 83 -61 62 0 76 18 71 95 -9 119 -105
196 -254 202 -43 2 -91 1 -105 -1z"/>
<path d="M2294 2986 c-18 -14 -19 -30 -19 -421 0 -391 1 -407 19 -421 29 -20
99 -18 119 4 14 15 17 42 17 159 l0 140 113 5 c128 6 181 24 234 79 49 51 64
99 64 195 0 148 -62 238 -182 263 -77 17 -341 14 -365 -3z m330 -138 c53 -23
78 -106 57 -185 -19 -68 -47 -83 -157 -83 l-94 0 0 140 0 140 85 0 c46 0 95
-5 109 -12z"/>
<path d="M2963 2990 c-12 -5 -25 -20 -28 -33 -4 -14 -5 -164 -3 -334 l3 -309
30 -59 c23 -44 42 -67 76 -88 98 -60 260 -60 358 0 34 21 53 44 76 88 l30 59
3 320 c2 256 0 325 -10 339 -20 26 -91 34 -123 13 l-25 -16 0 -306 c0 -336 -4
-360 -59 -388 -38 -20 -91 -20 -137 -1 -61 25 -64 45 -64 389 0 304 0 305 -22
320 -25 17 -70 20 -105 6z"/>
</g>
</svg>
